<svg xmlns="http://www.w3.org/2000/svg" width="137.641" height="40" viewBox="0 0 137.641 40"><path d="M167.476,246.027c-.1-.012-9.259-1.2-14.453-5.039h11.3a2.253,2.253,0,0,0,1.937-1.1.5.5,0,0,0-.187-.687l-.739-.419a.518.518,0,0,0-.7.183.359.359,0,0,1-.309.175H150.51v-3.153h9.471a2.254,2.254,0,0,0,1.937-1.1.5.5,0,0,0-.187-.687l-.74-.42a.519.519,0,0,0-.7.184.36.36,0,0,1-.309.175H150.51v-2.743H158.5a2.254,2.254,0,0,0,1.937-1.1.49.49,0,0,0,.052-.382.5.5,0,0,0-.239-.305l-.74-.42a.52.52,0,0,0-.7.184.359.359,0,0,1-.309.175H150.51v-2.743H158.5a2.254,2.254,0,0,0,1.937-1.1.491.491,0,0,0,.052-.382.5.5,0,0,0-.239-.305l-.74-.42a.52.52,0,0,0-.7.184.359.359,0,0,1-.309.175H150.51v-2.743h9.471a2.254,2.254,0,0,0,1.937-1.1.5.5,0,0,0-.187-.687l-.74-.42a.525.525,0,0,0-.256-.067.518.518,0,0,0-.445.251.359.359,0,0,1-.309.175h-9.545a.256.256,0,0,0-.083-.056,4.915,4.915,0,0,0,2.158-1.811,4.7,4.7,0,0,0,.717-2.464.251.251,0,0,0-.12-.219l-3.282-2.013a.26.26,0,0,0-.354.08l-4.092,6.406h-.258a.257.257,0,0,0-.183.076h-4.652v-2.019a.234.234,0,0,0-.011-.054c.813-.89,1.666-1.87,2.557-2.959a.247.247,0,0,0,.047-.224.253.253,0,0,0-.158-.169l-6.085-2.215a.265.265,0,0,0-.089-.016.258.258,0,0,0-.135.037.251.251,0,0,0-.12.187,25.1,25.1,0,0,1-6.54,13.061.247.247,0,0,0-.029.305.258.258,0,0,0,.217.117.264.264,0,0,0,.077-.012,17.452,17.452,0,0,0,5.054-3.143v13.252a.25.25,0,0,0,.1.2.26.26,0,0,0,.161.056.256.256,0,0,0,.053-.006l3.794-.791h5.691v3.153H128.7a.509.509,0,0,0-.513.5v.838a.509.509,0,0,0,.513.5h10.969a30.243,30.243,0,0,1-12.345,10.294.269.269,0,0,0-.181.3.256.256,0,0,0,.25.2.251.251,0,0,0,.044,0,42.333,42.333,0,0,0,17.425-8.042v8.435a.25.25,0,0,0,.093.194.261.261,0,0,0,.163.057.268.268,0,0,0,.049,0l5.131-.981a.252.252,0,0,0,.207-.247v-9.326a24.09,24.09,0,0,0,12.665,10.089.259.259,0,0,0,.288-.087l4.186-5.432a.248.248,0,0,0,.032-.249A.257.257,0,0,0,167.476,246.027Zm-22.61-16.466h-4.579v-2.743h4.579Zm0-7.329v2.743h-4.579v-2.743Zm-4.579,11.916v-2.743h4.579v2.743Z" transform="translate(-127.141 -212.732)" fill="#ffffff"/><g transform="translate(98.062 0.879)"><path d="M560.217,241.406a.256.256,0,0,0,.16.111.246.246,0,0,0,.057.007.261.261,0,0,0,.136-.038l3.631-2.227a.251.251,0,0,0,.12-.219,5.177,5.177,0,0,0-.788-2.712c-1.174-1.838-3.506-2.809-6.743-2.809-.217,0-.441.006-.666.015a57.959,57.959,0,0,0,6.293-7.765.248.248,0,0,0-.064-.342l-4.695-3.323a.259.259,0,0,0-.15-.048.267.267,0,0,0-.071.01.256.256,0,0,0-.167.146c-.012.03-.316.748-.884,1.932h-.443V216.71a.254.254,0,0,0-.257-.252l-5.13.7a.254.254,0,0,0-.257.251v6.734H545a.254.254,0,0,0-.256.251v1.257a.254.254,0,0,0,.256.251h10.508c-2.24,4.369-6.521,11.716-12.263,17.009a.248.248,0,0,0-.034.327.258.258,0,0,0,.21.107.261.261,0,0,0,.115-.026,43.209,43.209,0,0,0,6.76-4.5v15.617a.248.248,0,0,0,.091.192.26.26,0,0,0,.165.059.266.266,0,0,0,.043,0l5.131-.863a.253.253,0,0,0,.213-.248V234.715Z" transform="translate(-543.168 -216.459)" fill="#ffffff"/><path d="M634.9,252.026l-.74-.42a.519.519,0,0,0-.7.183.359.359,0,0,1-.309.175H626.91V232.572h5.634a2.253,2.253,0,0,0,1.937-1.1.5.5,0,0,0-.187-.687l-.741-.42a.519.519,0,0,0-.7.184.359.359,0,0,1-.309.175H626.91V216.71a.254.254,0,0,0-.257-.252l-5.131.7a.254.254,0,0,0-.257.251v13.318h-7.49a.509.509,0,0,0-.513.5v.838a.509.509,0,0,0,.513.5h7.49v19.393h-9.012a.509.509,0,0,0-.513.5v.838a.509.509,0,0,0,.513.5h20.9a2.254,2.254,0,0,0,1.937-1.1A.5.5,0,0,0,634.9,252.026Z" transform="translate(-595.578 -216.459)" fill="#ffffff"/></g><g transform="translate(49.656 0.674)"><path d="M376.482,279.5c-.1-.012-12.465-1.81-15.941-7.611H374.66a2.254,2.254,0,0,0,1.937-1.1.49.49,0,0,0,.052-.382.5.5,0,0,0-.239-.305l-.739-.419a.519.519,0,0,0-.7.183.359.359,0,0,1-.309.175h-4.851V259.057a.25.25,0,0,0-.1-.2.261.261,0,0,0-.161-.055.248.248,0,0,0-.055.006l-4.7,1.009a.252.252,0,0,0-.194.2h-4.937v-4.226a.254.254,0,0,0-.256-.251h-5.131a.254.254,0,0,0-.257.251v4.226h-4.929v-.961a.25.25,0,0,0-.1-.2.26.26,0,0,0-.161-.055.248.248,0,0,0-.055.006l-4.7,1.009a.253.253,0,0,0-.2.246v9.974h-5.363a.509.509,0,0,0-.513.5v.838a.509.509,0,0,0,.513.5h15.067c-.95,2.288-4.265,7.467-15.623,12.522a.25.25,0,0,0-.143.289.256.256,0,0,0,.249.192h.014c.169-.009,15.674-.547,20.411-12.13,1.671,3.192,6.146,10.252,14.093,12.681a.282.282,0,0,0,.083.014.258.258,0,0,0,.2-.1l3.787-5.454a.249.249,0,0,0,.032-.249A.257.257,0,0,0,376.482,279.5Zm-11.889-17.633v8.178h-4.929v-8.178Zm-15.5,0h4.929v8.178h-4.929Z" transform="translate(-337.804 -246.125)" fill="#ffffff"/><path d="M339.139,222.908h8.94v4.613a.25.25,0,0,0,.1.2.26.26,0,0,0,.161.056.252.252,0,0,0,.055-.006l4.7-1.009a.252.252,0,0,0,.2-.245v-3.6h8.22v4.613a.25.25,0,0,0,.1.2.26.26,0,0,0,.161.056.252.252,0,0,0,.055-.006l4.7-1.009a.252.252,0,0,0,.2-.245v-3.6h8.557a2.254,2.254,0,0,0,1.937-1.1.49.49,0,0,0,.052-.382.5.5,0,0,0-.239-.305l-.74-.42a.519.519,0,0,0-.7.183.359.359,0,0,1-.309.175h-8.557v-5.219a.25.25,0,0,0-.1-.2.259.259,0,0,0-.161-.056.254.254,0,0,0-.055.006l-4.7,1.009a.252.252,0,0,0-.2.245v4.21H353.3v-5.219a.25.25,0,0,0-.1-.2.259.259,0,0,0-.161-.056.252.252,0,0,0-.055.006l-4.7,1.009a.252.252,0,0,0-.2.245v4.21h-8.94a.509.509,0,0,0-.513.5v.838A.509.509,0,0,0,339.139,222.908Z" transform="translate(-338.432 -215.593)" fill="#ffffff"/></g></svg>